# xmcd
#
# Track frame offsets:
#	150
#	8371
#	19322
#	31471
#	48228
#	55267
#	63270
#	74722
#	85671
#	96857
#	108366
#	118435
#	131042
#	146616
#
# Disc length: 2071 seconds
#
# Revision: 1
# Processed by: cddbd v1.5.1PL0 Copyright (c) Steve Scherf et al.
# Submitted via: audiograbber 1.82.02
#
DISCID=c308150e
DTITLE=The Booher Brothers - Ride
DYEAR=2004
DGENRE=Country
TTITLE0=Ride, Cowboy, Ride
TTITLE1=Don't Fence Me In
TTITLE2=Sweet Georgia Brown
TTITLE3=Lights of Old Santa Fe
TTITLE4=I'm My Own Grandpaw
TTITLE5=Back on Those Texas Plains
TTITLE6=South of the Border
TTITLE7=Circuit Ridin' Preacher
TTITLE8=Orange Blossom Special
TTITLE9=Back in the Saddle Again
TTITLE10=Empty Saddles in the Old Corral
TTITLE11=The Master's Call
TTITLE12=Shenandoah Medley
TTITLE13=I Shall Not Be Moved
EXTD=Submitted by Craig Piguet
EXTT0=
EXTT1=
EXTT2=
EXTT3=
EXTT4=
EXTT5=
EXTT6=
EXTT7=
EXTT8=
EXTT9=
EXTT10=
EXTT11=
EXTT12=
EXTT13=
PLAYORDER=
